<?xml version="1.0" encoding="UTF-8"?>
<!DOCTYPE svg PUBLIC "-//W3C//DTD SVG 1.1//EN" "http://www.w3.org/Graphics/SVG/1.1/DTD/svg11.dtd">
<svg xmlns="http://www.w3.org/2000/svg" version="1.1" width="123px" height="117px" style="shape-rendering:geometricPrecision; text-rendering:geometricPrecision; image-rendering:optimizeQuality; fill-rule:evenodd; clip-rule:evenodd" xmlns:xlink="http://www.w3.org/1999/xlink">
<g><path style="opacity:1" fill="#1574ef" d="M 40.5,-0.5 C 41.8333,-0.5 43.1667,-0.5 44.5,-0.5C 49.863,2.26373 55.363,4.93039 61,7.5C 66.637,4.93039 72.137,2.26373 77.5,-0.5C 78.8333,-0.5 80.1667,-0.5 81.5,-0.5C 84.1773,5.68557 87.5107,11.5189 91.5,17C 97.8881,18.3106 104.221,19.8106 110.5,21.5C 110.833,22 111.167,22.5 111.5,23C 110.336,29.4637 109.836,35.9637 110,42.5C 114.032,47.3611 118.199,52.0277 122.5,56.5C 122.5,57.5 122.5,58.5 122.5,59.5C 118.199,63.9723 114.032,68.6389 110,73.5C 109.836,80.0363 110.336,86.5363 111.5,93C 111.167,93.5 110.833,94 110.5,94.5C 104.221,96.1894 97.8881,97.6894 91.5,99C 87.5107,104.481 84.1773,110.314 81.5,116.5C 80.1667,116.5 78.8333,116.5 77.5,116.5C 72.137,113.736 66.637,111.07 61,108.5C 55.363,111.07 49.863,113.736 44.5,116.5C 43.1667,116.5 41.8333,116.5 40.5,116.5C 37.8227,110.314 34.4893,104.481 30.5,99C 24.1198,97.6548 17.7865,96.1548 11.5,94.5C 11.1667,94 10.8333,93.5 10.5,93C 11.6636,86.5363 12.1636,80.0363 12,73.5C 7.96785,68.6389 3.80118,63.9723 -0.5,59.5C -0.5,58.5 -0.5,57.5 -0.5,56.5C 3.80118,52.0277 7.96785,47.3611 12,42.5C 12.1636,35.9637 11.6636,29.4637 10.5,23C 10.8333,22.5 11.1667,22 11.5,21.5C 17.7865,19.8452 24.1198,18.3452 30.5,17C 34.4893,11.5189 37.8227,5.68557 40.5,-0.5 Z"/></g>
<g><path style="opacity:1" fill="#fefefe" d="M 78.5,38.5 C 85.4334,38.6961 87.6001,42.0295 85,48.5C 75.1667,58.3333 65.3333,68.1667 55.5,78C 54.5,78.6667 53.5,78.6667 52.5,78C 47,72.5 41.5,67 36,61.5C 35.982,56.8333 38.3153,53.8333 43,52.5C 47.0677,54.5613 50.5677,57.3946 53.5,61C 54.5,61.6667 55.5,61.6667 56.5,61C 64.0358,53.6316 71.3692,46.1316 78.5,38.5 Z"/></g>
</svg>
